<svg width="288" height="97" viewBox="0 0 288 97" fill="none" xmlns="http://www.w3.org/2000/svg">
<g filter="url(#filter0_d_219_763)">
<rect x="16" y="12" width="256" height="65" rx="10" fill="#AC7FC8" shape-rendering="crispEdges"/>
<path d="M101.557 40.875H96.5795C96.4886 40.2311 96.303 39.6591 96.0227 39.1591C95.7424 38.6515 95.3826 38.2197 94.9432 37.8636C94.5038 37.5076 93.9962 37.2348 93.4205 37.0455C92.8523 36.8561 92.2348 36.7614 91.5682 36.7614C90.3636 36.7614 89.3144 37.0606 88.4205 37.6591C87.5265 38.25 86.8333 39.1136 86.3409 40.25C85.8485 41.3788 85.6023 42.75 85.6023 44.3636C85.6023 46.0227 85.8485 47.4167 86.3409 48.5455C86.8409 49.6742 87.5379 50.5265 88.4318 51.1023C89.3258 51.678 90.3598 51.9659 91.5341 51.9659C92.1932 51.9659 92.803 51.8788 93.3636 51.7045C93.9318 51.5303 94.4356 51.2765 94.875 50.9432C95.3144 50.6023 95.678 50.1894 95.9659 49.7045C96.2614 49.2197 96.4659 48.6667 96.5795 48.0455L101.557 48.0682C101.428 49.1364 101.106 50.1667 100.591 51.1591C100.083 52.1439 99.3977 53.0265 98.5341 53.8068C97.678 54.5795 96.6553 55.1932 95.4659 55.6477C94.2841 56.0947 92.947 56.3182 91.4545 56.3182C89.3788 56.3182 87.5227 55.8485 85.8864 54.9091C84.2576 53.9697 82.9697 52.6098 82.0227 50.8295C81.0833 49.0492 80.6136 46.8939 80.6136 44.3636C80.6136 41.8258 81.0909 39.6667 82.0455 37.8864C83 36.1061 84.2955 34.75 85.9318 33.8182C87.5682 32.8788 89.4091 32.4091 91.4545 32.4091C92.803 32.4091 94.053 32.5985 95.2045 32.9773C96.3636 33.3561 97.3902 33.9091 98.2841 34.6364C99.178 35.3561 99.9053 36.2386 100.466 37.2841C101.034 38.3295 101.398 39.5265 101.557 40.875ZM109.835 32.7273V56H104.994V32.7273H109.835ZM113.713 56V38.5455H118.554V56H113.713ZM116.145 36.2955C115.425 36.2955 114.808 36.0568 114.293 35.5795C113.785 35.0947 113.531 34.5152 113.531 33.8409C113.531 33.1742 113.785 32.6023 114.293 32.125C114.808 31.6402 115.425 31.3977 116.145 31.3977C116.865 31.3977 117.478 31.6402 117.986 32.125C118.501 32.6023 118.759 33.1742 118.759 33.8409C118.759 34.5152 118.501 35.0947 117.986 35.5795C117.478 36.0568 116.865 36.2955 116.145 36.2955ZM130.386 56.3409C128.591 56.3409 127.045 55.9773 125.75 55.25C124.462 54.5152 123.47 53.4773 122.773 52.1364C122.076 50.7879 121.727 49.1932 121.727 47.3523C121.727 45.5568 122.076 43.9811 122.773 42.625C123.47 41.2689 124.451 40.2121 125.716 39.4545C126.989 38.697 128.481 38.3182 130.193 38.3182C131.345 38.3182 132.417 38.5038 133.409 38.875C134.409 39.2386 135.28 39.7879 136.023 40.5227C136.773 41.2576 137.356 42.1818 137.773 43.2955C138.189 44.4015 138.398 45.697 138.398 47.1818V48.5114H123.659V45.5114H133.841C133.841 44.8144 133.689 44.197 133.386 43.6591C133.083 43.1212 132.663 42.7008 132.125 42.3977C131.595 42.0871 130.977 41.9318 130.273 41.9318C129.538 41.9318 128.886 42.1023 128.318 42.4432C127.758 42.7765 127.318 43.2273 127 43.7955C126.682 44.3561 126.519 44.9811 126.511 45.6705V48.5227C126.511 49.3864 126.67 50.1326 126.989 50.7614C127.314 51.3902 127.773 51.875 128.364 52.2159C128.955 52.5568 129.655 52.7273 130.466 52.7273C131.004 52.7273 131.496 52.6515 131.943 52.5C132.39 52.3485 132.773 52.1212 133.091 51.8182C133.409 51.5152 133.652 51.1439 133.818 50.7045L138.295 51C138.068 52.0758 137.602 53.0152 136.898 53.8182C136.201 54.6136 135.299 55.2348 134.193 55.6818C133.095 56.1212 131.826 56.3409 130.386 56.3409ZM146.398 45.9091V56H141.557V38.5455H146.17V41.625H146.375C146.761 40.6098 147.409 39.8068 148.318 39.2159C149.227 38.6174 150.33 38.3182 151.625 38.3182C152.837 38.3182 153.894 38.5833 154.795 39.1136C155.697 39.6439 156.398 40.4015 156.898 41.3864C157.398 42.3636 157.648 43.5303 157.648 44.8864V56H152.807V45.75C152.814 44.6818 152.542 43.8485 151.989 43.25C151.436 42.6439 150.674 42.3409 149.705 42.3409C149.053 42.3409 148.477 42.4811 147.977 42.7614C147.485 43.0417 147.098 43.4508 146.818 43.9886C146.545 44.5189 146.405 45.1591 146.398 45.9091ZM170.747 38.5455V42.1818H160.236V38.5455H170.747ZM162.622 34.3636H167.463V50.6364C167.463 51.0833 167.531 51.4318 167.668 51.6818C167.804 51.9242 167.993 52.0947 168.236 52.1932C168.486 52.2917 168.774 52.3409 169.099 52.3409C169.327 52.3409 169.554 52.322 169.781 52.2841C170.009 52.2386 170.183 52.2045 170.304 52.1818L171.065 55.7841C170.823 55.8598 170.482 55.947 170.043 56.0455C169.603 56.1515 169.069 56.2159 168.44 56.2386C167.274 56.2841 166.251 56.1288 165.372 55.7727C164.501 55.4167 163.823 54.8636 163.338 54.1136C162.853 53.3636 162.615 52.4167 162.622 51.2727V34.3636ZM181.668 56.3409C179.872 56.3409 178.327 55.9773 177.031 55.25C175.743 54.5152 174.751 53.4773 174.054 52.1364C173.357 50.7879 173.009 49.1932 173.009 47.3523C173.009 45.5568 173.357 43.9811 174.054 42.625C174.751 41.2689 175.732 40.2121 176.997 39.4545C178.27 38.697 179.762 38.3182 181.474 38.3182C182.626 38.3182 183.698 38.5038 184.69 38.875C185.69 39.2386 186.562 39.7879 187.304 40.5227C188.054 41.2576 188.637 42.1818 189.054 43.2955C189.471 44.4015 189.679 45.697 189.679 47.1818V48.5114H174.94V45.5114H185.122C185.122 44.8144 184.971 44.197 184.668 43.6591C184.365 43.1212 183.944 42.7008 183.406 42.3977C182.876 42.0871 182.259 41.9318 181.554 41.9318C180.819 41.9318 180.168 42.1023 179.599 42.4432C179.039 42.7765 178.599 43.2273 178.281 43.7955C177.963 44.3561 177.8 44.9811 177.793 45.6705V48.5227C177.793 49.3864 177.952 50.1326 178.27 50.7614C178.596 51.3902 179.054 51.875 179.645 52.2159C180.236 52.5568 180.937 52.7273 181.747 52.7273C182.285 52.7273 182.777 52.6515 183.224 52.5C183.671 52.3485 184.054 52.1212 184.372 51.8182C184.69 51.5152 184.933 51.1439 185.099 50.7045L189.577 51C189.349 52.0758 188.884 53.0152 188.179 53.8182C187.482 54.6136 186.58 55.2348 185.474 55.6818C184.376 56.1212 183.107 56.3409 181.668 56.3409ZM207.361 43.5227L202.929 43.7955C202.853 43.4167 202.69 43.0758 202.44 42.7727C202.19 42.4621 201.861 42.2159 201.452 42.0341C201.05 41.8447 200.569 41.75 200.009 41.75C199.259 41.75 198.626 41.9091 198.111 42.2273C197.596 42.5379 197.338 42.9545 197.338 43.4773C197.338 43.8939 197.505 44.2462 197.838 44.5341C198.171 44.822 198.743 45.053 199.554 45.2273L202.713 45.8636C204.41 46.2121 205.675 46.7727 206.509 47.5455C207.342 48.3182 207.759 49.3333 207.759 50.5909C207.759 51.7348 207.421 52.7386 206.747 53.6023C206.08 54.4659 205.164 55.1402 203.997 55.625C202.838 56.1023 201.501 56.3409 199.986 56.3409C197.675 56.3409 195.834 55.8598 194.463 54.8977C193.099 53.928 192.3 52.6098 192.065 50.9432L196.827 50.6932C196.971 51.3977 197.319 51.9356 197.872 52.3068C198.425 52.6705 199.134 52.8523 199.997 52.8523C200.846 52.8523 201.527 52.6894 202.043 52.3636C202.565 52.0303 202.83 51.6023 202.838 51.0795C202.83 50.6402 202.645 50.2803 202.281 50C201.918 49.7121 201.357 49.4924 200.599 49.3409L197.577 48.7386C195.872 48.3977 194.603 47.8068 193.77 46.9659C192.944 46.125 192.531 45.053 192.531 43.75C192.531 42.6288 192.834 41.6629 193.44 40.8523C194.054 40.0417 194.914 39.4167 196.02 38.9773C197.134 38.5379 198.437 38.3182 199.929 38.3182C202.134 38.3182 203.868 38.7841 205.134 39.7159C206.406 40.6477 207.149 41.9167 207.361 43.5227Z" fill="#FAFAFA"/>
</g>
<defs>
<filter id="filter0_d_219_763" x="0" y="0" width="288" height="97" filterUnits="userSpaceOnUse" color-interpolation-filters="sRGB">
<feFlood flood-opacity="0" result="BackgroundImageFix"/>
<feColorMatrix in="SourceAlpha" type="matrix" values="0 0 0 0 0 0 0 0 0 0 0 0 0 0 0 0 0 0 127 0" result="hardAlpha"/>
<feMorphology radius="4" operator="dilate" in="SourceAlpha" result="effect1_dropShadow_219_763"/>
<feOffset dy="4"/>
<feGaussianBlur stdDeviation="6"/>
<feComposite in2="hardAlpha" operator="out"/>
<feColorMatrix type="matrix" values="0 0 0 0 0.67451 0 0 0 0 0.498039 0 0 0 0 0.784314 0 0 0 0.25 0"/>
<feBlend mode="normal" in2="BackgroundImageFix" result="effect1_dropShadow_219_763"/>
<feBlend mode="normal" in="SourceGraphic" in2="effect1_dropShadow_219_763" result="shape"/>
</filter>
</defs>
</svg>
