<svg width="288" height="97" viewBox="0 0 288 97" fill="none" xmlns="http://www.w3.org/2000/svg">
<g filter="url(#filter0_d_221_919)">
<rect x="16" y="12" width="256" height="65" rx="10" fill="#AC7FC8" shape-rendering="crispEdges"/>
<path d="M59.0227 56V32.7273H74.7045V36.7841H63.9432V42.3295H73.8977V46.3864H63.9432V51.9432H74.75V56H59.0227ZM78.5256 56V38.5455H83.1392V41.625H83.3438C83.7074 40.6023 84.3134 39.7955 85.1619 39.2045C86.0104 38.6136 87.0256 38.3182 88.2074 38.3182C89.4044 38.3182 90.4233 38.6174 91.2642 39.2159C92.1051 39.8068 92.6657 40.6098 92.946 41.625H93.1278C93.4839 40.625 94.1278 39.8258 95.0597 39.2273C95.9991 38.6212 97.1089 38.3182 98.3892 38.3182C100.018 38.3182 101.34 38.8371 102.355 39.875C103.378 40.9053 103.889 42.3674 103.889 44.2614V56H99.0597V45.2159C99.0597 44.2462 98.8021 43.5189 98.2869 43.0341C97.7718 42.5492 97.1278 42.3068 96.3551 42.3068C95.4763 42.3068 94.7907 42.5871 94.2983 43.1477C93.8059 43.7008 93.5597 44.4318 93.5597 45.3409V56H88.8665V45.1136C88.8665 44.2576 88.6203 43.5758 88.1278 43.0682C87.643 42.5606 87.0028 42.3068 86.2074 42.3068C85.6695 42.3068 85.1847 42.4432 84.7528 42.7159C84.3286 42.9811 83.9915 43.3561 83.7415 43.8409C83.4915 44.3182 83.3665 44.8788 83.3665 45.5227V56H78.5256ZM107.713 62.5455V38.5455H112.486V41.4773H112.702C112.914 41.0076 113.221 40.5303 113.622 40.0455C114.031 39.553 114.562 39.1439 115.213 38.8182C115.872 38.4848 116.69 38.3182 117.668 38.3182C118.94 38.3182 120.115 38.6515 121.19 39.3182C122.266 39.9773 123.126 40.9735 123.77 42.3068C124.414 43.6326 124.736 45.2955 124.736 47.2955C124.736 49.2424 124.421 50.8864 123.793 52.2273C123.171 53.5606 122.323 54.572 121.247 55.2614C120.179 55.9432 118.982 56.2841 117.656 56.2841C116.717 56.2841 115.918 56.1288 115.259 55.8182C114.607 55.5076 114.073 55.1174 113.656 54.6477C113.24 54.1705 112.921 53.6894 112.702 53.2045H112.554V62.5455H107.713ZM112.452 47.2727C112.452 48.3106 112.596 49.2159 112.884 49.9886C113.171 50.7614 113.588 51.3636 114.134 51.7955C114.679 52.2197 115.342 52.4318 116.122 52.4318C116.91 52.4318 117.577 52.2159 118.122 51.7841C118.668 51.3447 119.08 50.7386 119.361 49.9659C119.649 49.1856 119.793 48.2879 119.793 47.2727C119.793 46.2652 119.652 45.3788 119.372 44.6136C119.092 43.8485 118.679 43.25 118.134 42.8182C117.588 42.3864 116.918 42.1705 116.122 42.1705C115.334 42.1705 114.668 42.3788 114.122 42.7955C113.584 43.2121 113.171 43.803 112.884 44.5682C112.596 45.3333 112.452 46.2348 112.452 47.2727ZM132.804 32.7273V56H127.963V32.7273H132.804ZM144.636 56.3409C142.841 56.3409 141.295 55.9773 140 55.25C138.712 54.5152 137.72 53.4773 137.023 52.1364C136.326 50.7879 135.977 49.1932 135.977 47.3523C135.977 45.5568 136.326 43.9811 137.023 42.625C137.72 41.2689 138.701 40.2121 139.966 39.4545C141.239 38.697 142.731 38.3182 144.443 38.3182C145.595 38.3182 146.667 38.5038 147.659 38.875C148.659 39.2386 149.53 39.7879 150.273 40.5227C151.023 41.2576 151.606 42.1818 152.023 43.2955C152.439 44.4015 152.648 45.697 152.648 47.1818V48.5114H137.909V45.5114H148.091C148.091 44.8144 147.939 44.197 147.636 43.6591C147.333 43.1212 146.913 42.7008 146.375 42.3977C145.845 42.0871 145.227 41.9318 144.523 41.9318C143.788 41.9318 143.136 42.1023 142.568 42.4432C142.008 42.7765 141.568 43.2273 141.25 43.7955C140.932 44.3561 140.769 44.9811 140.761 45.6705V48.5227C140.761 49.3864 140.92 50.1326 141.239 50.7614C141.564 51.3902 142.023 51.875 142.614 52.2159C143.205 52.5568 143.905 52.7273 144.716 52.7273C145.254 52.7273 145.746 52.6515 146.193 52.5C146.64 52.3485 147.023 52.1212 147.341 51.8182C147.659 51.5152 147.902 51.1439 148.068 50.7045L152.545 51C152.318 52.0758 151.852 53.0152 151.148 53.8182C150.451 54.6136 149.549 55.2348 148.443 55.6818C147.345 56.1212 146.076 56.3409 144.636 56.3409ZM160.784 56.3295C159.67 56.3295 158.678 56.1364 157.807 55.75C156.936 55.3561 156.246 54.7765 155.739 54.0114C155.239 53.2386 154.989 52.2765 154.989 51.125C154.989 50.1553 155.167 49.3409 155.523 48.6818C155.879 48.0227 156.364 47.4924 156.977 47.0909C157.591 46.6894 158.288 46.3864 159.068 46.1818C159.856 45.9773 160.682 45.8333 161.545 45.75C162.561 45.6439 163.379 45.5455 164 45.4545C164.621 45.3561 165.072 45.2121 165.352 45.0227C165.633 44.8333 165.773 44.553 165.773 44.1818V44.1136C165.773 43.3939 165.545 42.8371 165.091 42.4432C164.644 42.0492 164.008 41.8523 163.182 41.8523C162.311 41.8523 161.617 42.0455 161.102 42.4318C160.587 42.8106 160.246 43.2879 160.08 43.8636L155.602 43.5C155.83 42.4394 156.277 41.5227 156.943 40.75C157.61 39.9697 158.47 39.3712 159.523 38.9545C160.583 38.5303 161.811 38.3182 163.205 38.3182C164.174 38.3182 165.102 38.4318 165.989 38.6591C166.883 38.8864 167.674 39.2386 168.364 39.7159C169.061 40.1932 169.61 40.8068 170.011 41.5568C170.413 42.2992 170.614 43.1894 170.614 44.2273V56H166.023V53.5795H165.886C165.606 54.125 165.231 54.6061 164.761 55.0227C164.292 55.4318 163.727 55.7538 163.068 55.9886C162.409 56.2159 161.648 56.3295 160.784 56.3295ZM162.17 52.9886C162.883 52.9886 163.511 52.8485 164.057 52.5682C164.602 52.2803 165.03 51.8939 165.341 51.4091C165.652 50.9242 165.807 50.375 165.807 49.7614V47.9091C165.655 48.0076 165.447 48.0985 165.182 48.1818C164.924 48.2576 164.633 48.3295 164.307 48.3977C163.981 48.4583 163.655 48.5152 163.33 48.5682C163.004 48.6136 162.708 48.6553 162.443 48.6932C161.875 48.7765 161.379 48.9091 160.955 49.0909C160.53 49.2727 160.201 49.5189 159.966 49.8295C159.731 50.1326 159.614 50.5114 159.614 50.9659C159.614 51.625 159.852 52.1288 160.33 52.4773C160.814 52.8182 161.428 52.9886 162.17 52.9886ZM180.801 56.2841C179.475 56.2841 178.275 55.9432 177.199 55.2614C176.131 54.572 175.282 53.5606 174.653 52.2273C174.032 50.8864 173.722 49.2424 173.722 47.2955C173.722 45.2955 174.044 43.6326 174.688 42.3068C175.331 40.9735 176.188 39.9773 177.256 39.3182C178.331 38.6515 179.509 38.3182 180.79 38.3182C181.767 38.3182 182.581 38.4848 183.233 38.8182C183.892 39.1439 184.422 39.553 184.824 40.0455C185.233 40.5303 185.544 41.0076 185.756 41.4773H185.903V32.7273H190.733V56H185.96V53.2045H185.756C185.528 53.6894 185.206 54.1705 184.79 54.6477C184.381 55.1174 183.847 55.5076 183.188 55.8182C182.536 56.1288 181.741 56.2841 180.801 56.2841ZM182.335 52.4318C183.116 52.4318 183.775 52.2197 184.312 51.7955C184.858 51.3636 185.275 50.7614 185.562 49.9886C185.858 49.2159 186.006 48.3106 186.006 47.2727C186.006 46.2348 185.862 45.3333 185.574 44.5682C185.286 43.803 184.869 43.2121 184.324 42.7955C183.778 42.3788 183.116 42.1705 182.335 42.1705C181.54 42.1705 180.869 42.3864 180.324 42.8182C179.778 43.25 179.366 43.8485 179.085 44.6136C178.805 45.3788 178.665 46.2652 178.665 47.2727C178.665 48.2879 178.805 49.1856 179.085 49.9659C179.373 50.7386 179.786 51.3447 180.324 51.7841C180.869 52.2159 181.54 52.4318 182.335 52.4318ZM202.599 56.3409C200.834 56.3409 199.308 55.9659 198.02 55.2159C196.74 54.4583 195.751 53.4053 195.054 52.0568C194.357 50.7008 194.009 49.1288 194.009 47.3409C194.009 45.5379 194.357 43.9621 195.054 42.6136C195.751 41.2576 196.74 40.2045 198.02 39.4545C199.308 38.697 200.834 38.3182 202.599 38.3182C204.365 38.3182 205.887 38.697 207.168 39.4545C208.455 40.2045 209.448 41.2576 210.145 42.6136C210.842 43.9621 211.19 45.5379 211.19 47.3409C211.19 49.1288 210.842 50.7008 210.145 52.0568C209.448 53.4053 208.455 54.4583 207.168 55.2159C205.887 55.9659 204.365 56.3409 202.599 56.3409ZM202.622 52.5909C203.425 52.5909 204.096 52.3636 204.634 51.9091C205.171 51.447 205.577 50.8182 205.849 50.0227C206.13 49.2273 206.27 48.322 206.27 47.3068C206.27 46.2917 206.13 45.3864 205.849 44.5909C205.577 43.7955 205.171 43.1667 204.634 42.7045C204.096 42.2424 203.425 42.0114 202.622 42.0114C201.812 42.0114 201.13 42.2424 200.577 42.7045C200.031 43.1667 199.618 43.7955 199.338 44.5909C199.065 45.3864 198.929 46.2917 198.929 47.3068C198.929 48.322 199.065 49.2273 199.338 50.0227C199.618 50.8182 200.031 51.447 200.577 51.9091C201.13 52.3636 201.812 52.5909 202.622 52.5909ZM228.861 43.5227L224.429 43.7955C224.353 43.4167 224.19 43.0758 223.94 42.7727C223.69 42.4621 223.361 42.2159 222.952 42.0341C222.55 41.8447 222.069 41.75 221.509 41.75C220.759 41.75 220.126 41.9091 219.611 42.2273C219.096 42.5379 218.838 42.9545 218.838 43.4773C218.838 43.8939 219.005 44.2462 219.338 44.5341C219.671 44.822 220.243 45.053 221.054 45.2273L224.213 45.8636C225.91 46.2121 227.175 46.7727 228.009 47.5455C228.842 48.3182 229.259 49.3333 229.259 50.5909C229.259 51.7348 228.921 52.7386 228.247 53.6023C227.58 54.4659 226.664 55.1402 225.497 55.625C224.338 56.1023 223.001 56.3409 221.486 56.3409C219.175 56.3409 217.334 55.8598 215.963 54.8977C214.599 53.928 213.8 52.6098 213.565 50.9432L218.327 50.6932C218.471 51.3977 218.819 51.9356 219.372 52.3068C219.925 52.6705 220.634 52.8523 221.497 52.8523C222.346 52.8523 223.027 52.6894 223.543 52.3636C224.065 52.0303 224.33 51.6023 224.338 51.0795C224.33 50.6402 224.145 50.2803 223.781 50C223.418 49.7121 222.857 49.4924 222.099 49.3409L219.077 48.7386C217.372 48.3977 216.103 47.8068 215.27 46.9659C214.444 46.125 214.031 45.053 214.031 43.75C214.031 42.6288 214.334 41.6629 214.94 40.8523C215.554 40.0417 216.414 39.4167 217.52 38.9773C218.634 38.5379 219.937 38.3182 221.429 38.3182C223.634 38.3182 225.368 38.7841 226.634 39.7159C227.906 40.6477 228.649 41.9167 228.861 43.5227Z" fill="#FAFAFA"/>
</g>
<defs>
<filter id="filter0_d_221_919" x="0" y="0" width="288" height="97" filterUnits="userSpaceOnUse" color-interpolation-filters="sRGB">
<feFlood flood-opacity="0" result="BackgroundImageFix"/>
<feColorMatrix in="SourceAlpha" type="matrix" values="0 0 0 0 0 0 0 0 0 0 0 0 0 0 0 0 0 0 127 0" result="hardAlpha"/>
<feMorphology radius="4" operator="dilate" in="SourceAlpha" result="effect1_dropShadow_221_919"/>
<feOffset dy="4"/>
<feGaussianBlur stdDeviation="6"/>
<feComposite in2="hardAlpha" operator="out"/>
<feColorMatrix type="matrix" values="0 0 0 0 0.67451 0 0 0 0 0.498039 0 0 0 0 0.784314 0 0 0 0.25 0"/>
<feBlend mode="normal" in2="BackgroundImageFix" result="effect1_dropShadow_221_919"/>
<feBlend mode="normal" in="SourceGraphic" in2="effect1_dropShadow_221_919" result="shape"/>
</filter>
</defs>
</svg>
