<svg width="288" height="97" viewBox="0 0 288 97" fill="none" xmlns="http://www.w3.org/2000/svg">
<g filter="url(#filter0_d_221_869)">
<rect x="16" y="12" width="256" height="65" rx="10" fill="#AC7FC8" shape-rendering="crispEdges"/>
<path d="M85.1477 39.4205C85.0568 38.5038 84.6667 37.7917 83.9773 37.2841C83.2879 36.7765 82.3523 36.5227 81.1705 36.5227C80.3674 36.5227 79.6894 36.6364 79.1364 36.8636C78.5833 37.0833 78.1591 37.3902 77.8636 37.7841C77.5758 38.178 77.4318 38.625 77.4318 39.125C77.4167 39.5417 77.5038 39.9053 77.6932 40.2159C77.8902 40.5265 78.1591 40.7955 78.5 41.0227C78.8409 41.2424 79.2348 41.4356 79.6818 41.6023C80.1288 41.7614 80.6061 41.8977 81.1136 42.0114L83.2045 42.5114C84.2197 42.7386 85.1515 43.0417 86 43.4205C86.8485 43.7992 87.5833 44.2652 88.2045 44.8182C88.8258 45.3712 89.3068 46.0227 89.6477 46.7727C89.9962 47.5227 90.1742 48.3826 90.1818 49.3523C90.1742 50.7765 89.8106 52.0114 89.0909 53.0568C88.3788 54.0947 87.3485 54.9015 86 55.4773C84.6591 56.0455 83.0417 56.3295 81.1477 56.3295C79.2689 56.3295 77.6326 56.0417 76.2386 55.4659C74.8523 54.8902 73.7689 54.0379 72.9886 52.9091C72.2159 51.7727 71.8106 50.3674 71.7727 48.6932H76.5341C76.5871 49.4735 76.8106 50.125 77.2045 50.6477C77.6061 51.1629 78.1402 51.553 78.8068 51.8182C79.4811 52.0758 80.2424 52.2045 81.0909 52.2045C81.9242 52.2045 82.6477 52.0833 83.2614 51.8409C83.8826 51.5985 84.3636 51.2614 84.7045 50.8295C85.0455 50.3977 85.2159 49.9015 85.2159 49.3409C85.2159 48.8182 85.0606 48.3788 84.75 48.0227C84.447 47.6667 84 47.3636 83.4091 47.1136C82.8258 46.8636 82.1098 46.6364 81.2614 46.4318L78.7273 45.7955C76.7652 45.3182 75.2159 44.572 74.0795 43.5568C72.9432 42.5417 72.3788 41.1742 72.3864 39.4545C72.3788 38.0455 72.7538 36.8144 73.5114 35.7614C74.2765 34.7083 75.3258 33.8864 76.6591 33.2955C77.9924 32.7045 79.5076 32.4091 81.2045 32.4091C82.9318 32.4091 84.4394 32.7045 85.7273 33.2955C87.0227 33.8864 88.0303 34.7083 88.75 35.7614C89.4697 36.8144 89.8409 38.0341 89.8636 39.4205H85.1477ZM101.355 56.3409C99.5597 56.3409 98.0142 55.9773 96.7188 55.25C95.4309 54.5152 94.4384 53.4773 93.7415 52.1364C93.0445 50.7879 92.696 49.1932 92.696 47.3523C92.696 45.5568 93.0445 43.9811 93.7415 42.625C94.4384 41.2689 95.4195 40.2121 96.6847 39.4545C97.9574 38.697 99.4498 38.3182 101.162 38.3182C102.313 38.3182 103.385 38.5038 104.378 38.875C105.378 39.2386 106.249 39.7879 106.991 40.5227C107.741 41.2576 108.325 42.1818 108.741 43.2955C109.158 44.4015 109.366 45.697 109.366 47.1818V48.5114H94.6278V45.5114H104.81C104.81 44.8144 104.658 44.197 104.355 43.6591C104.052 43.1212 103.632 42.7008 103.094 42.3977C102.563 42.0871 101.946 41.9318 101.241 41.9318C100.507 41.9318 99.8551 42.1023 99.2869 42.4432C98.7263 42.7765 98.2869 43.2273 97.9688 43.7955C97.6506 44.3561 97.4877 44.9811 97.4801 45.6705V48.5227C97.4801 49.3864 97.6392 50.1326 97.9574 50.7614C98.2831 51.3902 98.7415 51.875 99.3324 52.2159C99.9233 52.5568 100.624 52.7273 101.435 52.7273C101.973 52.7273 102.465 52.6515 102.912 52.5C103.359 52.3485 103.741 52.1212 104.06 51.8182C104.378 51.5152 104.62 51.1439 104.787 50.7045L109.264 51C109.037 52.0758 108.571 53.0152 107.866 53.8182C107.17 54.6136 106.268 55.2348 105.162 55.6818C104.063 56.1212 102.795 56.3409 101.355 56.3409ZM112.526 56V38.5455H117.219V41.5909H117.401C117.719 40.5076 118.253 39.6894 119.003 39.1364C119.753 38.5758 120.616 38.2955 121.594 38.2955C121.836 38.2955 122.098 38.3106 122.378 38.3409C122.658 38.3712 122.904 38.4129 123.116 38.4659V42.7614C122.889 42.6932 122.575 42.6326 122.173 42.5795C121.772 42.5265 121.404 42.5 121.071 42.5C120.359 42.5 119.723 42.6553 119.162 42.9659C118.609 43.2689 118.17 43.6932 117.844 44.2386C117.526 44.7841 117.366 45.4129 117.366 46.125V56H112.526ZM142.423 38.5455L136.321 56H130.866L124.764 38.5455H129.878L133.503 51.0341H133.685L137.298 38.5455H142.423ZM144.901 56V38.5455H149.741V56H144.901ZM147.332 36.2955C146.613 36.2955 145.995 36.0568 145.48 35.5795C144.973 35.0947 144.719 34.5152 144.719 33.8409C144.719 33.1742 144.973 32.6023 145.48 32.125C145.995 31.6402 146.613 31.3977 147.332 31.3977C148.052 31.3977 148.666 31.6402 149.173 32.125C149.688 32.6023 149.946 33.1742 149.946 33.8409C149.946 34.5152 149.688 35.0947 149.173 35.5795C148.666 36.0568 148.052 36.2955 147.332 36.2955ZM161.506 56.3409C159.718 56.3409 158.18 55.9621 156.892 55.2045C155.612 54.4394 154.627 53.3788 153.938 52.0227C153.256 50.6667 152.915 49.1061 152.915 47.3409C152.915 45.553 153.259 43.9848 153.949 42.6364C154.646 41.2803 155.634 40.2235 156.915 39.4659C158.195 38.7008 159.718 38.3182 161.483 38.3182C163.006 38.3182 164.339 38.5947 165.483 39.1477C166.627 39.7008 167.532 40.4773 168.199 41.4773C168.866 42.4773 169.233 43.6515 169.301 45H164.733C164.604 44.1288 164.263 43.428 163.71 42.8977C163.165 42.3598 162.449 42.0909 161.562 42.0909C160.812 42.0909 160.157 42.2955 159.597 42.7045C159.044 43.1061 158.612 43.6932 158.301 44.4659C157.991 45.2386 157.835 46.1742 157.835 47.2727C157.835 48.3864 157.987 49.3333 158.29 50.1136C158.6 50.8939 159.036 51.4886 159.597 51.8977C160.157 52.3068 160.812 52.5114 161.562 52.5114C162.116 52.5114 162.612 52.3977 163.051 52.1705C163.498 51.9432 163.866 51.6136 164.153 51.1818C164.449 50.7424 164.642 50.2159 164.733 49.6023H169.301C169.225 50.9356 168.862 52.1098 168.21 53.125C167.566 54.1326 166.676 54.9205 165.54 55.4886C164.403 56.0568 163.059 56.3409 161.506 56.3409ZM172.401 56V38.5455H177.241V56H172.401ZM174.832 36.2955C174.113 36.2955 173.495 36.0568 172.98 35.5795C172.473 35.0947 172.219 34.5152 172.219 33.8409C172.219 33.1742 172.473 32.6023 172.98 32.125C173.495 31.6402 174.113 31.3977 174.832 31.3977C175.552 31.3977 176.166 31.6402 176.673 32.125C177.188 32.6023 177.446 33.1742 177.446 33.8409C177.446 34.5152 177.188 35.0947 176.673 35.5795C176.166 36.0568 175.552 36.2955 174.832 36.2955ZM189.006 56.3409C187.241 56.3409 185.714 55.9659 184.426 55.2159C183.146 54.4583 182.157 53.4053 181.46 52.0568C180.763 50.7008 180.415 49.1288 180.415 47.3409C180.415 45.5379 180.763 43.9621 181.46 42.6136C182.157 41.2576 183.146 40.2045 184.426 39.4545C185.714 38.697 187.241 38.3182 189.006 38.3182C190.771 38.3182 192.294 38.697 193.574 39.4545C194.862 40.2045 195.854 41.2576 196.551 42.6136C197.248 43.9621 197.597 45.5379 197.597 47.3409C197.597 49.1288 197.248 50.7008 196.551 52.0568C195.854 53.4053 194.862 54.4583 193.574 55.2159C192.294 55.9659 190.771 56.3409 189.006 56.3409ZM189.028 52.5909C189.831 52.5909 190.502 52.3636 191.04 51.9091C191.578 51.447 191.983 50.8182 192.256 50.0227C192.536 49.2273 192.676 48.322 192.676 47.3068C192.676 46.2917 192.536 45.3864 192.256 44.5909C191.983 43.7955 191.578 43.1667 191.04 42.7045C190.502 42.2424 189.831 42.0114 189.028 42.0114C188.218 42.0114 187.536 42.2424 186.983 42.7045C186.438 43.1667 186.025 43.7955 185.744 44.5909C185.472 45.3864 185.335 46.2917 185.335 47.3068C185.335 48.322 185.472 49.2273 185.744 50.0227C186.025 50.8182 186.438 51.447 186.983 51.9091C187.536 52.3636 188.218 52.5909 189.028 52.5909ZM215.267 43.5227L210.835 43.7955C210.759 43.4167 210.597 43.0758 210.347 42.7727C210.097 42.4621 209.767 42.2159 209.358 42.0341C208.956 41.8447 208.475 41.75 207.915 41.75C207.165 41.75 206.532 41.9091 206.017 42.2273C205.502 42.5379 205.244 42.9545 205.244 43.4773C205.244 43.8939 205.411 44.2462 205.744 44.5341C206.078 44.822 206.65 45.053 207.46 45.2273L210.619 45.8636C212.316 46.2121 213.581 46.7727 214.415 47.5455C215.248 48.3182 215.665 49.3333 215.665 50.5909C215.665 51.7348 215.328 52.7386 214.653 53.6023C213.987 54.4659 213.07 55.1402 211.903 55.625C210.744 56.1023 209.407 56.3409 207.892 56.3409C205.581 56.3409 203.741 55.8598 202.369 54.8977C201.006 53.928 200.206 52.6098 199.972 50.9432L204.733 50.6932C204.877 51.3977 205.225 51.9356 205.778 52.3068C206.331 52.6705 207.04 52.8523 207.903 52.8523C208.752 52.8523 209.434 52.6894 209.949 52.3636C210.472 52.0303 210.737 51.6023 210.744 51.0795C210.737 50.6402 210.551 50.2803 210.188 50C209.824 49.7121 209.263 49.4924 208.506 49.3409L205.483 48.7386C203.778 48.3977 202.509 47.8068 201.676 46.9659C200.85 46.125 200.438 45.053 200.438 43.75C200.438 42.6288 200.741 41.6629 201.347 40.8523C201.96 40.0417 202.82 39.4167 203.926 38.9773C205.04 38.5379 206.343 38.3182 207.835 38.3182C210.04 38.3182 211.775 38.7841 213.04 39.7159C214.313 40.6477 215.055 41.9167 215.267 43.5227Z" fill="#FAFAFA"/>
</g>
<defs>
<filter id="filter0_d_221_869" x="0" y="0" width="288" height="97" filterUnits="userSpaceOnUse" color-interpolation-filters="sRGB">
<feFlood flood-opacity="0" result="BackgroundImageFix"/>
<feColorMatrix in="SourceAlpha" type="matrix" values="0 0 0 0 0 0 0 0 0 0 0 0 0 0 0 0 0 0 127 0" result="hardAlpha"/>
<feMorphology radius="4" operator="dilate" in="SourceAlpha" result="effect1_dropShadow_221_869"/>
<feOffset dy="4"/>
<feGaussianBlur stdDeviation="6"/>
<feComposite in2="hardAlpha" operator="out"/>
<feColorMatrix type="matrix" values="0 0 0 0 0.67451 0 0 0 0 0.498039 0 0 0 0 0.784314 0 0 0 0.25 0"/>
<feBlend mode="normal" in2="BackgroundImageFix" result="effect1_dropShadow_221_869"/>
<feBlend mode="normal" in="SourceGraphic" in2="effect1_dropShadow_221_869" result="shape"/>
</filter>
</defs>
</svg>
